# xmcd
#
# Track frame offsets: 
#        150
#        10320
#        22355
#        33750
#        46415
#        58325
#        70840
#        82250
#        93427
#        106185
#        117340
#        128980
#        139525
#        152105
#
# Disc length: 2194 seconds
#
# Revision: 2
# Processed by: cddbd v1.5.2PL0 Copyright (c) Steve Scherf et al.
# Submitted via: ExactAudioCopyFreeDBPlugin 1.0
#
DISCID=c208900e
DTITLE=Ray Charles - The Early Years
DYEAR=1995
DGENRE=Rhythm and Blues
TTITLE0=Ain't That Fine
TTITLE1=Honey, Honey
TTITLE2=Ray Charles Blues
TTITLE3=Don't Put All Your Dreams in One Basket
TTITLE4=St. Pete Florida Blues
TTITLE5=You Always Miss the Water (When the Well Goes Dry)
TTITLE6=Sentimental Blues
TTITLE7=Jack, She's on the Ball
TTITLE8=Can Anyone Ask for More
TTITLE9=Let's Have a Ball
TTITLE10=If I Give You My Love
TTITLE11=Sitting on Top of the World
TTITLE12=I've Had My Fun
TTITLE13=Rockin' Chair Blues
EXTD=The LP released in the 70's. It was digitally remastered and reis
EXTD=sued on CD in 1995 by King Records, Inc.
EXTT0=
EXTT1=
EXTT2=
EXTT3=
EXTT4=
EXTT5=
EXTT6=
EXTT7=
EXTT8=
EXTT9=
EXTT10=
EXTT11=
EXTT12=
EXTT13=
PLAYORDER=
